<?xml version="1.0" standalone="no"?>
<!DOCTYPE svg PUBLIC "-//W3C//DTD SVG 20010904//EN"
 "http://www.w3.org/TR/2001/REC-SVG-20010904/DTD/svg10.dtd">
<svg version="1.0" xmlns="http://www.w3.org/2000/svg"
 width="70.000000pt" height="70.000000pt" viewBox="0 0 70.000000 70.000000"
 preserveAspectRatio="xMidYMid meet">
<metadata>
Created by potrace 1.14, written by Peter Selinger 2001-2017
</metadata>
<g transform="translate(0.000000,70.000000) scale(0.100000,-0.100000)"
fill="#000000" stroke="none">
<path d="M293 594 c-46 -50 -51 -59 -41 -78 6 -11 19 -27 30 -34 23 -17 23
-58 -1 -71 -13 -8 -23 -6 -37 7 -67 58 -59 56 -93 23 -17 -17 -31 -34 -31 -38
0 -5 -9 -15 -19 -22 -20 -15 -18 -35 6 -59 7 -7 18 -21 25 -30 7 -10 24 -25
37 -35 27 -18 15 -27 108 77 37 41 47 46 78 44 19 -1 35 -5 35 -8 0 -12 108
-120 119 -120 6 0 34 23 62 50 56 55 56 53 -3 113 -15 15 -24 27 -20 27 4 0
-4 6 -18 13 -23 12 -27 10 -52 -15 -28 -30 -72 -37 -81 -13 -4 8 -2 17 4 20 5
4 7 11 4 16 -4 5 -1 9 4 9 6 0 11 5 11 10 0 6 9 21 21 33 l20 22 -25 22 c-14
12 -26 25 -26 29 0 5 -60 64 -64 64 -1 0 -24 -25 -53 -56z"/>
<path d="M303 253 c-24 -24 -43 -48 -43 -54 0 -5 -5 -9 -10 -9 -26 0 57 -105
91 -115 14 -5 31 7 64 42 47 51 53 67 33 87 -7 7 -27 28 -44 48 -17 19 -35 37
-40 40 -5 3 -28 -15 -51 -39z"/>
</g>
</svg>
